# xmcd CD database file
#
# Track frame offsets:
#	150
#	88910
#	130990
#	170087
#	181599
#	226642
#
# Disc length: 3718 seconds
#
# Revision: 0
# Processed by: cddbd v1.5.2PL0 Copyright (c) Steve Scherf et al.
# Submitted via: CDex 1.51
#
DISCID=430e8406
DTITLE=Various Artist - Miles From India CD1
DYEAR=2008
DGENRE=Jazz
TTITLE0=Spanish Key
TTITLE1=All Blues
TTITLE2=Ife (fast)
TTITLE3=In a Silent Way
TTITLE4=It's About That Time
TTITLE5=Jean Pierre
EXTD=YEAR: 2008
EXTT0=
EXTT1=
EXTT2=
EXTT3=
EXTT4=
EXTT5=
PLAYORDER=
